<svg width="903" height="62" viewBox="0 0 903 62" fill="none" xmlns="http://www.w3.org/2000/svg">
<path d="M19.3945 30.0312H34.6523C36.9727 30.0312 38.9297 29.2812 40.5234 27.7812C42.1406 26.2812 42.9492 24.1484 42.9492 21.3828C42.9492 19.3438 42.1055 17.5156 40.418 15.8984C38.7305 14.2578 36.8086 13.4375 34.6523 13.4375H12.9258V59H10.3945V10.9062H34.6523C37.5117 10.9062 40.0312 11.9727 42.2109 14.1055C44.3906 16.2148 45.4805 18.6406 45.4805 21.3828C45.4805 24.7578 44.4258 27.4648 42.3164 29.5039C40.207 31.543 37.6523 32.5625 34.6523 32.5625H19.3945V30.0312ZM19.3945 35.0938H34.6523C38.3086 35.0938 41.4492 33.8164 44.0742 31.2617C46.6992 28.6836 48.0117 25.3906 48.0117 21.3828C48.0117 17.9375 46.6641 14.9141 43.9688 12.3125C41.2969 9.6875 38.1914 8.375 34.6523 8.375H7.86328V59H5.33203V5.84375H34.6523C37.4414 5.84375 40.0547 6.55859 42.4922 7.98828C44.9531 9.41797 46.9102 11.3398 48.3633 13.7539C49.8164 16.1445 50.543 18.6875 50.543 21.3828C50.543 26 48.9727 29.8672 45.832 32.9844C42.7148 36.0781 38.9883 37.625 34.6523 37.625H19.3945V35.0938ZM19.3945 40.1562H34.6523C37.9336 40.1562 40.9805 39.3477 43.793 37.7305C46.6055 36.1133 48.8555 33.8633 50.543 30.9805C52.2305 28.0742 53.0742 24.875 53.0742 21.3828C53.0742 18.2188 52.2305 15.2539 50.543 12.4883C48.8789 9.69922 46.6289 7.47266 43.793 5.80859C40.957 4.14453 37.9102 3.3125 34.6523 3.3125H2.80078V59H0.269531V0.78125H34.6523C38.332 0.78125 41.7891 1.73047 45.0234 3.62891C48.2578 5.50391 50.8242 8.03516 52.7227 11.2227C54.6445 14.3867 55.6055 17.7734 55.6055 21.3828C55.6055 25.5547 54.7031 29.2227 52.8984 32.3867C51.1172 35.5508 48.6914 38.0234 45.6211 39.8047L52.1602 59H49.4883L43.2305 41C42.293 41.375 41.5781 41.6328 41.0859 41.7734L46.957 59H44.2852L38.5547 42.3711C38.3438 42.418 37.5938 42.5 36.3047 42.6172L41.7539 59H39.082L33.7031 42.6875H31.418L36.5508 59H33.8789L28.7109 42.6875H19.3945V40.1562ZM17.9883 59H15.457V15.9688H34.6523C36.2227 15.9688 37.5703 16.5078 38.6953 17.5859C39.8438 18.6406 40.418 19.9062 40.418 21.3828C40.418 25.4609 38.4961 27.5 34.6523 27.5H19.3945V24.9688H34.6523C35.6602 24.9688 36.4453 24.7109 37.0078 24.1953C37.5938 23.6562 37.8867 22.7188 37.8867 21.3828C37.8867 20.5625 37.5703 19.8828 36.9375 19.3438C36.3281 18.7812 35.5664 18.5 34.6523 18.5H17.9883V59ZM99.6914 38.7148C99.6914 37.8008 99.4102 37.1914 98.8477 36.8867C98.3086 36.582 97.5117 36.4297 96.457 36.4297H80.1445V33.8984H96.457C100.301 33.8984 102.223 35.5039 102.223 38.7148C102.223 40.5195 101.695 41.8203 100.641 42.6172C99.5859 43.4141 98.1914 43.8125 96.457 43.8125H80.1445V41.2812H96.457C98.6133 41.2812 99.6914 40.4258 99.6914 38.7148ZM78.7383 59H76.207V15.9688H96.457C98.0508 15.9688 99.4102 16.4609 100.535 17.4453C101.66 18.4062 102.223 19.6133 102.223 21.0664C102.223 22.9883 101.695 24.3828 100.641 25.25C99.5859 26.0938 98.1914 26.5156 96.457 26.5156H80.1445V23.9844H96.457C98.6133 23.9844 99.6914 23.0117 99.6914 21.0664C99.6914 20.2695 99.3867 19.6484 98.7773 19.2031C98.168 18.7344 97.3945 18.5 96.457 18.5H78.7383V59ZM80.1445 29.0469H96.457C98.7773 29.0469 100.734 28.3555 102.328 26.9727C103.945 25.5664 104.754 23.5977 104.754 21.0664C104.754 19.0273 103.91 17.2461 102.223 15.7227C100.559 14.1992 98.6367 13.4375 96.457 13.4375H73.6758V59H71.1445V10.9062H96.457C99.3398 10.9062 101.859 11.9258 104.016 13.9648C106.195 15.9805 107.285 18.3477 107.285 21.0664C107.285 23.1992 106.781 25.0625 105.773 26.6562C104.789 28.25 103.453 29.4805 101.766 30.3477C105.445 31.6602 107.285 34.332 107.285 38.3633C107.285 41.5508 106.23 44.1055 104.121 46.0273C102.012 47.9258 99.457 48.875 96.457 48.875H80.1445V46.3438H96.457C98.7773 46.3438 100.734 45.6523 102.328 44.2695C103.945 42.8633 104.754 40.8945 104.754 38.3633C104.754 36.6523 104.145 35.1406 102.926 33.8281C101.707 32.5156 99.9141 31.7539 97.5469 31.543C97.3125 31.5664 96.9492 31.5781 96.457 31.5781H80.1445V29.0469ZM112.348 21.0664C112.348 24.3477 111.188 27.3125 108.867 29.9609C111.188 32.5391 112.348 35.3398 112.348 38.3633C112.348 41.293 111.609 43.9648 110.133 46.3789C108.68 48.7695 106.734 50.6328 104.297 51.9688C101.883 53.2812 99.2695 53.9375 96.457 53.9375H80.1445V51.4062H96.457C100.113 51.4062 103.254 50.1875 105.879 47.75C108.504 45.2891 109.816 42.1602 109.816 38.3633C109.816 37.0039 109.465 35.5039 108.762 33.8633C108.082 32.1992 107.133 30.9336 105.914 30.0664C108.516 27.6289 109.816 24.6289 109.816 21.0664C109.816 17.6445 108.48 14.6797 105.809 12.1719C103.137 9.64062 100.02 8.375 96.457 8.375H68.6133V59H66.082V5.84375H96.457C99.2461 5.84375 101.859 6.53516 104.297 7.91797C106.758 9.27734 108.715 11.1406 110.168 13.5078C111.621 15.8516 112.348 18.3711 112.348 21.0664ZM111.75 30.1016C113.836 27.3125 114.879 24.3008 114.879 21.0664C114.879 17.9023 114.035 14.9609 112.348 12.2422C110.684 9.5 108.434 7.33203 105.598 5.73828C102.762 4.12109 99.7148 3.3125 96.457 3.3125H63.5508V59H61.0195V0.78125H96.457C100.16 0.78125 103.617 1.69531 106.828 3.52344C110.062 5.35156 112.629 7.83594 114.527 10.9766C116.449 14.0938 117.41 17.457 117.41 21.0664C117.41 24.5117 116.438 27.5352 114.492 30.1367C116.438 32.832 117.41 35.5742 117.41 38.3633C117.41 41.5039 116.848 44.3867 115.723 47.0117C114.598 49.6133 113.074 51.7812 111.152 53.5156C109.254 55.25 107.039 56.5977 104.508 57.5586C101.977 58.5195 99.293 59 96.457 59H80.1445V56.4688H96.457C98.918 56.4688 101.273 56.0117 103.523 55.0977C105.773 54.1602 107.73 52.8945 109.395 51.3008C111.059 49.707 112.383 47.7852 113.367 45.5352C114.375 43.2852 114.879 40.8945 114.879 38.3633C114.879 37.2383 114.609 35.8906 114.07 34.3203C113.555 32.7266 112.781 31.3203 111.75 30.1016ZM161.777 38.7148C161.777 37.8008 161.496 37.1914 160.934 36.8867C160.395 36.582 159.598 36.4297 158.543 36.4297H142.23V33.8984H158.543C162.387 33.8984 164.309 35.5039 164.309 38.7148C164.309 40.5195 163.781 41.8203 162.727 42.6172C161.672 43.4141 160.277 43.8125 158.543 43.8125H142.23V41.2812H158.543C160.699 41.2812 161.777 40.4258 161.777 38.7148ZM140.824 59H138.293V15.9688H158.543C160.137 15.9688 161.496 16.4609 162.621 17.4453C163.746 18.4062 164.309 19.6133 164.309 21.0664C164.309 22.9883 163.781 24.3828 162.727 25.25C161.672 26.0938 160.277 26.5156 158.543 26.5156H142.23V23.9844H158.543C160.699 23.9844 161.777 23.0117 161.777 21.0664C161.777 20.2695 161.473 19.6484 160.863 19.2031C160.254 18.7344 159.48 18.5 158.543 18.5H140.824V59ZM142.23 29.0469H158.543C160.863 29.0469 162.82 28.3555 164.414 26.9727C166.031 25.5664 166.84 23.5977 166.84 21.0664C166.84 19.0273 165.996 17.2461 164.309 15.7227C162.645 14.1992 160.723 13.4375 158.543 13.4375H135.762V59H133.23V10.9062H158.543C161.426 10.9062 163.945 11.9258 166.102 13.9648C168.281 15.9805 169.371 18.3477 169.371 21.0664C169.371 23.1992 168.867 25.0625 167.859 26.6562C166.875 28.25 165.539 29.4805 163.852 30.3477C167.531 31.6602 169.371 34.332 169.371 38.3633C169.371 41.5508 168.316 44.1055 166.207 46.0273C164.098 47.9258 161.543 48.875 158.543 48.875H142.23V46.3438H158.543C160.863 46.3438 162.82 45.6523 164.414 44.2695C166.031 42.8633 166.84 40.8945 166.84 38.3633C166.84 36.6523 166.23 35.1406 165.012 33.8281C163.793 32.5156 162 31.7539 159.633 31.543C159.398 31.5664 159.035 31.5781 158.543 31.5781H142.23V29.0469ZM174.434 21.0664C174.434 24.3477 173.273 27.3125 170.953 29.9609C173.273 32.5391 174.434 35.3398 174.434 38.3633C174.434 41.293 173.695 43.9648 172.219 46.3789C170.766 48.7695 168.82 50.6328 166.383 51.9688C163.969 53.2812 161.355 53.9375 158.543 53.9375H142.23V51.4062H158.543C162.199 51.4062 165.34 50.1875 167.965 47.75C170.59 45.2891 171.902 42.1602 171.902 38.3633C171.902 37.0039 171.551 35.5039 170.848 33.8633C170.168 32.1992 169.219 30.9336 168 30.0664C170.602 27.6289 171.902 24.6289 171.902 21.0664C171.902 17.6445 170.566 14.6797 167.895 12.1719C165.223 9.64062 162.105 8.375 158.543 8.375H130.699V59H128.168V5.84375H158.543C161.332 5.84375 163.945 6.53516 166.383 7.91797C168.844 9.27734 170.801 11.1406 172.254 13.5078C173.707 15.8516 174.434 18.3711 174.434 21.0664ZM173.836 30.1016C175.922 27.3125 176.965 24.3008 176.965 21.0664C176.965 17.9023 176.121 14.9609 174.434 12.2422C172.77 9.5 170.52 7.33203 167.684 5.73828C164.848 4.12109 161.801 3.3125 158.543 3.3125H125.637V59H123.105V0.78125H158.543C162.246 0.78125 165.703 1.69531 168.914 3.52344C172.148 5.35156 174.715 7.83594 176.613 10.9766C178.535 14.0938 179.496 17.457 179.496 21.0664C179.496 24.5117 178.523 27.5352 176.578 30.1367C178.523 32.832 179.496 35.5742 179.496 38.3633C179.496 41.5039 178.934 44.3867 177.809 47.0117C176.684 49.6133 175.16 51.7812 173.238 53.5156C171.34 55.25 169.125 56.5977 166.594 57.5586C164.062 58.5195 161.379 59 158.543 59H142.23V56.4688H158.543C161.004 56.4688 163.359 56.0117 165.609 55.0977C167.859 54.1602 169.816 52.8945 171.48 51.3008C173.145 49.707 174.469 47.7852 175.453 45.5352C176.461 43.2852 176.965 40.8945 176.965 38.3633C176.965 37.2383 176.695 35.8906 176.156 34.3203C175.641 32.7266 174.867 31.3203 173.836 30.1016ZM225.34 27.3594V59H222.809V27.3594C222.809 26.6797 222.691 26.1055 222.457 25.6367C222.246 25.1445 221.965 24.7695 221.613 24.5117C221.262 24.2539 220.793 24.0547 220.207 23.9141C219.645 23.75 219.094 23.6562 218.555 23.6328C218.016 23.5859 217.348 23.5625 216.551 23.5625C215.754 23.5625 215.086 23.5859 214.547 23.6328C214.008 23.6562 213.445 23.75 212.859 23.9141C212.297 24.0547 211.84 24.2539 211.488 24.5117C211.137 24.7695 210.844 25.1445 210.609 25.6367C210.398 26.1055 210.293 26.6797 210.293 27.3594V59H207.762V27.3594C207.762 23.1406 210.691 21.0312 216.551 21.0312C222.41 21.0312 225.34 23.1406 225.34 27.3594ZM230.402 27.3594V59H227.871V27.3594C227.871 24.3828 226.816 22.168 224.707 20.7148C222.621 19.2383 219.902 18.5 216.551 18.5C213.199 18.5 210.469 19.2383 208.359 20.7148C206.273 22.168 205.23 24.3828 205.23 27.3594V59H202.699V27.3594C202.699 24.8984 203.332 22.7891 204.598 21.0312C205.863 19.2734 207.516 17.9961 209.555 17.1992C211.617 16.3789 213.949 15.9688 216.551 15.9688C219.152 15.9688 221.473 16.3789 223.512 17.1992C225.574 17.9961 227.238 19.2734 228.504 21.0312C229.77 22.7891 230.402 24.8984 230.402 27.3594ZM235.465 27.3594V59H232.934V27.3594C232.934 25.1562 232.5 23.1641 231.633 21.3828C230.789 19.6016 229.617 18.1367 228.117 16.9883C226.617 15.8398 224.883 14.9609 222.914 14.3516C220.945 13.7422 218.824 13.4375 216.551 13.4375C214.277 13.4375 212.156 13.7422 210.188 14.3516C208.219 14.9609 206.484 15.8398 204.984 16.9883C203.484 18.1367 202.301 19.6016 201.434 21.3828C200.59 23.1641 200.168 25.1562 200.168 27.3594V59H197.637V27.3594C197.637 24.8047 198.129 22.4844 199.113 20.3984C200.121 18.3125 201.48 16.5898 203.191 15.2305C204.902 13.8477 206.906 12.7812 209.203 12.0312C211.5 11.2812 213.949 10.9062 216.551 10.9062C219.152 10.9062 221.602 11.2812 223.898 12.0312C226.195 12.7812 228.199 13.8477 229.91 15.2305C231.621 16.5898 232.969 18.3125 233.953 20.3984C234.961 22.4844 235.465 24.8047 235.465 27.3594ZM240.527 59H237.996V27.3594C237.996 24.8047 237.422 22.3555 236.273 20.0117C235.148 17.668 233.625 15.6523 231.703 13.9648C229.781 12.2539 227.496 10.8945 224.848 9.88672C222.199 8.87891 219.434 8.375 216.551 8.375C212.59 8.375 208.992 9.125 205.758 10.625C202.547 12.1016 199.969 14.3047 198.023 17.2344C196.078 20.1406 195.105 23.5156 195.105 27.3594V59H192.574V27.3594C192.574 24.125 193.207 21.1484 194.473 18.4297C195.738 15.7109 197.449 13.4375 199.605 11.6094C201.785 9.78125 204.328 8.36328 207.234 7.35547C210.164 6.34766 213.27 5.84375 216.551 5.84375C222.363 5.84375 227.402 7.30859 231.668 10.2383C235.934 7.30859 240.973 5.84375 246.785 5.84375C250.066 5.84375 253.16 6.34766 256.066 7.35547C258.996 8.36328 261.539 9.78125 263.695 11.6094C265.875 13.4375 267.598 15.7109 268.863 18.4297C270.129 21.1484 270.762 24.125 270.762 27.3594V59H268.23V27.3594C268.23 23.5391 267.258 20.1758 265.312 17.2695C263.367 14.3398 260.777 12.125 257.543 10.625C254.332 9.125 250.746 8.375 246.785 8.375C241.816 8.375 237.48 9.54688 233.777 11.8906C234.316 12.3594 234.914 12.9688 235.57 13.7188C238.781 11.8438 242.52 10.9062 246.785 10.9062C249.387 10.9062 251.836 11.2812 254.133 12.0312C256.43 12.7812 258.434 13.8477 260.145 15.2305C261.855 16.5898 263.203 18.3125 264.188 20.3984C265.195 22.4844 265.699 24.8047 265.699 27.3594V59H263.168V27.3594C263.168 25.1562 262.734 23.1641 261.867 21.3828C261.023 19.6016 259.852 18.1367 258.352 16.9883C256.852 15.8398 255.117 14.9609 253.148 14.3516C251.18 13.7422 249.059 13.4375 246.785 13.4375C243.059 13.4375 239.836 14.1992 237.117 15.7227C237.539 16.3789 237.961 17.1055 238.383 17.9023C240.68 16.6133 243.48 15.9688 246.785 15.9688C249.387 15.9688 251.707 16.3789 253.746 17.1992C255.809 17.9961 257.473 19.2734 258.738 21.0312C260.004 22.7891 260.637 24.8984 260.637 27.3594V59H258.105V27.3594C258.105 24.3828 257.051 22.168 254.941 20.7148C252.855 19.2383 250.137 18.5 246.785 18.5C243.738 18.5 241.266 19.0625 239.367 20.1875C239.672 21.0781 239.906 21.9219 240.07 22.7188C241.547 21.5938 243.785 21.0312 246.785 21.0312C252.645 21.0312 255.574 23.1406 255.574 27.3594V59H253.043V27.3594C253.043 26.6797 252.926 26.1055 252.691 25.6367C252.48 25.1445 252.199 24.7695 251.848 24.5117C251.496 24.2539 251.027 24.0547 250.441 23.9141C249.879 23.75 249.328 23.6562 248.789 23.6328C248.25 23.5859 247.582 23.5625 246.785 23.5625C245.988 23.5625 245.32 23.5859 244.781 23.6328C244.242 23.6562 243.68 23.75 243.094 23.9141C242.531 24.0547 242.074 24.2539 241.723 24.5117C241.371 24.7695 241.078 25.1445 240.844 25.6367C240.633 26.1055 240.527 26.6797 240.527 27.3594V59ZM313.02 34.0391C313.02 31.0391 312.094 28.7188 310.242 27.0781C308.391 25.4375 305.941 24.6172 302.895 24.6172C300.316 24.6172 298.102 25.5078 296.25 27.2891C294.398 29.0703 293.473 31.2031 293.473 33.6875C293.473 35.0938 293.66 36.3594 294.035 37.4844C294.41 38.5859 294.914 39.5117 295.547 40.2617C296.203 40.9883 296.977 41.5977 297.867 42.0898C298.758 42.5586 299.684 42.8984 300.645 43.1094C301.629 43.3203 302.672 43.4258 303.773 43.4258C306.445 43.4258 308.883 42.7695 311.086 41.457V43.9883C308.812 45.1836 306.363 45.7812 303.738 45.7812C302.051 45.7812 300.457 45.5586 298.957 45.1133C297.48 44.6445 296.133 43.9531 294.914 43.0391C293.695 42.1016 292.723 40.8359 291.996 39.2422C291.293 37.625 290.941 35.7734 290.941 33.6875C290.941 30.4531 292.078 27.7109 294.352 25.4609C296.625 23.2109 299.473 22.0859 302.895 22.0859C306.668 22.0859 309.715 23.1523 312.035 25.2852C314.379 27.3945 315.551 30.3125 315.551 34.0391V59H313.02V34.0391ZM320.613 34.0391V59H318.082V34.0391C318.082 29.6094 316.664 26.0938 313.828 23.4922C310.992 20.8672 307.348 19.5547 302.895 19.5547C298.77 19.5547 295.324 20.9258 292.559 23.668C289.793 26.4102 288.41 29.75 288.41 33.6875C288.41 36.0781 288.82 38.2227 289.641 40.1211C290.484 42.0195 291.621 43.543 293.051 44.6914C294.48 45.8398 296.074 46.7188 297.832 47.3281C299.613 47.9141 301.488 48.207 303.457 48.207C306.129 48.207 308.672 47.5859 311.086 46.3438V49.0156C308.555 50.0703 306 50.5977 303.422 50.5977C301.102 50.5977 298.898 50.2461 296.812 49.543C294.727 48.8164 292.863 47.7734 291.223 46.4141C289.582 45.0312 288.281 43.25 287.32 41.0703C286.359 38.8672 285.879 36.4062 285.879 33.6875C285.879 29.0703 287.508 25.1445 290.766 21.9102C294.047 18.6523 298.09 17.0234 302.895 17.0234C306.27 17.0234 309.293 17.7148 311.965 19.0977C314.637 20.457 316.746 22.4375 318.293 25.0391C319.84 27.6406 320.613 30.6406 320.613 34.0391ZM325.676 34.0391V59H323.145V34.0391C323.145 30.1719 322.254 26.75 320.473 23.7734C318.715 20.7734 316.301 18.4766 313.23 16.8828C310.16 15.2891 306.715 14.4922 302.895 14.4922C299.262 14.4922 295.945 15.3594 292.945 17.0938C289.945 18.8047 287.59 21.125 285.879 24.0547C284.191 26.9844 283.348 30.1953 283.348 33.6875C283.348 36.6875 283.898 39.4297 285 41.9141C286.102 44.375 287.578 46.4023 289.43 47.9961C291.305 49.5898 293.426 50.832 295.793 51.7227C298.184 52.5898 300.68 53.0234 303.281 53.0234C305.93 53.0234 308.531 52.4727 311.086 51.3711V53.9375C308.414 54.9453 305.789 55.4492 303.211 55.4492C299.156 55.4492 295.43 54.5352 292.031 52.707C288.633 50.8789 285.914 48.2891 283.875 44.9375C281.836 41.5859 280.816 37.8359 280.816 33.6875C280.816 30.7344 281.379 27.9219 282.504 25.25C283.652 22.5781 285.199 20.2695 287.145 18.3242C289.09 16.3789 291.434 14.832 294.176 13.6836C296.918 12.5352 299.824 11.9609 302.895 11.9609C307.184 11.9609 311.051 12.875 314.496 14.7031C317.965 16.5312 320.695 19.1328 322.688 22.5078C324.68 25.8828 325.676 29.7266 325.676 34.0391ZM330.738 34.0391V59H328.207V34.0391C328.207 29.2578 327.094 24.9922 324.867 21.2422C322.641 17.4688 319.605 14.5625 315.762 12.5234C311.918 10.4609 307.629 9.42969 302.895 9.42969C298.348 9.42969 294.188 10.5195 290.414 12.6992C286.641 14.8789 283.676 17.832 281.52 21.5586C279.363 25.2617 278.285 29.3047 278.285 33.6875C278.285 36.5703 278.742 39.3125 279.656 41.9141C280.594 44.4922 281.859 46.7539 283.453 48.6992C285.07 50.6211 286.922 52.2852 289.008 53.6914C291.117 55.0977 293.379 56.1641 295.793 56.8906C298.23 57.6172 300.703 57.9805 303.211 57.9805C305.977 57.9805 308.602 57.4531 311.086 56.3984V59C308.484 59.9141 305.812 60.3711 303.07 60.3711C300.234 60.3711 297.469 59.9727 294.773 59.1758C292.102 58.3789 289.617 57.207 287.32 55.6602C285.047 54.0898 283.043 52.25 281.309 50.1406C279.574 48.0078 278.215 45.5234 277.23 42.6875C276.246 39.8516 275.754 36.8516 275.754 33.6875C275.754 30.0547 276.434 26.5977 277.793 23.3164C279.176 20.0117 281.051 17.1641 283.418 14.7734C285.809 12.3594 288.691 10.4492 292.066 9.04297C295.465 7.61328 299.074 6.89844 302.895 6.89844C306.785 6.89844 310.441 7.55469 313.863 8.86719C317.285 10.1797 320.238 12.0078 322.723 14.3516C325.207 16.6719 327.164 19.5312 328.594 22.9297C330.023 26.3281 330.738 30.0312 330.738 34.0391ZM376.934 38.5742L374.402 33.9688V8.375H376.934V38.5742ZM381.996 47.3281L379.465 43.0391V8.375H381.996V47.3281ZM347.121 28.8008L349.652 33.4062V59H347.121V28.8008ZM342.059 19.6953L344.59 24.3359V59H342.059V19.6953ZM342.938 8.375H345.891L375.211 59H372.258L342.938 8.375ZM348.914 8.375H351.902L381.188 59H378.164L348.914 8.375ZM354.855 8.375H357.809L384.527 54.6055V8.375H387.059V59H384.07L354.855 8.375ZM339.527 12.7344V59H336.996V8.375H340.02L369.234 59H366.316L339.527 12.7344ZM426.891 36.5703V8.375H429.422V36.5703C429.422 39.2422 428.391 41.5391 426.328 43.4609C424.289 45.3828 421.828 46.3438 418.945 46.3438C416.062 46.3438 413.59 45.3828 411.527 43.4609C409.488 41.5391 408.469 39.2422 408.469 36.5703V8.375H411V36.5703C411 38.5625 411.773 40.2734 413.32 41.7031C414.891 43.1094 416.766 43.8125 418.945 43.8125C421.125 43.8125 422.988 43.1094 424.535 41.7031C426.105 40.2734 426.891 38.5625 426.891 36.5703ZM431.953 36.5703V8.375H434.484V36.5703C434.484 40.6719 432.961 44.1758 429.914 47.082C426.867 49.9648 423.211 51.4062 418.945 51.4062C414.68 51.4062 411.023 49.9648 407.977 47.082C404.93 44.1758 403.406 40.6719 403.406 36.5703V8.375H405.938V36.5703C405.938 39.9688 407.203 42.875 409.734 45.2891C412.289 47.6797 415.359 48.875 418.945 48.875C422.508 48.875 425.566 47.6797 428.121 45.2891C430.676 42.875 431.953 39.9688 431.953 36.5703ZM437.016 36.5703V8.375H439.547V36.5703C439.547 40.1562 438.621 43.4844 436.77 46.5547C434.918 49.6016 432.41 52.0156 429.246 53.7969C426.082 55.5781 422.648 56.4688 418.945 56.4688C415.242 56.4688 411.809 55.5781 408.645 53.7969C405.48 52.0156 402.973 49.6016 401.121 46.5547C399.27 43.4844 398.344 40.1562 398.344 36.5703V8.375H400.875V36.5703C400.875 39.6875 401.684 42.582 403.301 45.2539C404.918 47.9258 407.109 50.0469 409.875 51.6172C412.664 53.1641 415.688 53.9375 418.945 53.9375C422.203 53.9375 425.215 53.1641 427.98 51.6172C430.77 50.0469 432.973 47.9258 434.59 45.2539C436.207 42.582 437.016 39.6875 437.016 36.5703ZM442.078 36.5703V8.375H444.609V36.5703C444.609 39.9453 443.93 43.1797 442.57 46.2734C441.211 49.3438 439.383 51.9922 437.086 54.2188C434.789 56.4453 432.059 58.2148 428.895 59.5273C425.73 60.8633 422.414 61.5312 418.945 61.5312C415.477 61.5312 412.16 60.8633 408.996 59.5273C405.832 58.2148 403.102 56.4453 400.805 54.2188C398.508 51.9922 396.68 49.3438 395.32 46.2734C393.961 43.1797 393.281 39.9453 393.281 36.5703V8.375H395.812V36.5703C395.812 40.6016 396.844 44.3398 398.906 47.7852C400.992 51.2305 403.805 53.9609 407.344 55.9766C410.906 57.9922 414.773 59 418.945 59C423.117 59 426.973 57.9922 430.512 55.9766C434.074 53.9609 436.887 51.2305 438.949 47.7852C441.035 44.3398 442.078 40.6016 442.078 36.5703ZM468.691 59H466.16V8.375H490.312V10.9062H468.691V13.4375H490.312V15.9688H468.691V18.5H490.312V21.0312H468.691V28.7656H488.625V31.2969H468.691V33.8281H488.625V36.3594H468.691V38.8906H488.625V41.4219H468.691V59ZM463.629 59H461.098V8.375H463.629V59ZM458.566 59H456.035V8.375H458.566V59ZM453.504 59H450.973V8.375H453.504V59ZM531.973 34.0391C531.973 31.0391 531.047 28.7188 529.195 27.0781C527.344 25.4375 524.895 24.6172 521.848 24.6172C519.27 24.6172 517.055 25.5078 515.203 27.2891C513.352 29.0703 512.426 31.2031 512.426 33.6875C512.426 35.0938 512.613 36.3594 512.988 37.4844C513.363 38.5859 513.867 39.5117 514.5 40.2617C515.156 40.9883 515.93 41.5977 516.82 42.0898C517.711 42.5586 518.637 42.8984 519.598 43.1094C520.582 43.3203 521.625 43.4258 522.727 43.4258C525.398 43.4258 527.836 42.7695 530.039 41.457V43.9883C527.766 45.1836 525.316 45.7812 522.691 45.7812C521.004 45.7812 519.41 45.5586 517.91 45.1133C516.434 44.6445 515.086 43.9531 513.867 43.0391C512.648 42.1016 511.676 40.8359 510.949 39.2422C510.246 37.625 509.895 35.7734 509.895 33.6875C509.895 30.4531 511.031 27.7109 513.305 25.4609C515.578 23.2109 518.426 22.0859 521.848 22.0859C525.621 22.0859 528.668 23.1523 530.988 25.2852C533.332 27.3945 534.504 30.3125 534.504 34.0391V59H531.973V34.0391ZM539.566 34.0391V59H537.035V34.0391C537.035 29.6094 535.617 26.0938 532.781 23.4922C529.945 20.8672 526.301 19.5547 521.848 19.5547C517.723 19.5547 514.277 20.9258 511.512 23.668C508.746 26.4102 507.363 29.75 507.363 33.6875C507.363 36.0781 507.773 38.2227 508.594 40.1211C509.438 42.0195 510.574 43.543 512.004 44.6914C513.434 45.8398 515.027 46.7188 516.785 47.3281C518.566 47.9141 520.441 48.207 522.41 48.207C525.082 48.207 527.625 47.5859 530.039 46.3438V49.0156C527.508 50.0703 524.953 50.5977 522.375 50.5977C520.055 50.5977 517.852 50.2461 515.766 49.543C513.68 48.8164 511.816 47.7734 510.176 46.4141C508.535 45.0312 507.234 43.25 506.273 41.0703C505.312 38.8672 504.832 36.4062 504.832 33.6875C504.832 29.0703 506.461 25.1445 509.719 21.9102C513 18.6523 517.043 17.0234 521.848 17.0234C525.223 17.0234 528.246 17.7148 530.918 19.0977C533.59 20.457 535.699 22.4375 537.246 25.0391C538.793 27.6406 539.566 30.6406 539.566 34.0391ZM544.629 34.0391V59H542.098V34.0391C542.098 30.1719 541.207 26.75 539.426 23.7734C537.668 20.7734 535.254 18.4766 532.184 16.8828C529.113 15.2891 525.668 14.4922 521.848 14.4922C518.215 14.4922 514.898 15.3594 511.898 17.0938C508.898 18.8047 506.543 21.125 504.832 24.0547C503.145 26.9844 502.301 30.1953 502.301 33.6875C502.301 36.6875 502.852 39.4297 503.953 41.9141C505.055 44.375 506.531 46.4023 508.383 47.9961C510.258 49.5898 512.379 50.832 514.746 51.7227C517.137 52.5898 519.633 53.0234 522.234 53.0234C524.883 53.0234 527.484 52.4727 530.039 51.3711V53.9375C527.367 54.9453 524.742 55.4492 522.164 55.4492C518.109 55.4492 514.383 54.5352 510.984 52.707C507.586 50.8789 504.867 48.2891 502.828 44.9375C500.789 41.5859 499.77 37.8359 499.77 33.6875C499.77 30.7344 500.332 27.9219 501.457 25.25C502.605 22.5781 504.152 20.2695 506.098 18.3242C508.043 16.3789 510.387 14.832 513.129 13.6836C515.871 12.5352 518.777 11.9609 521.848 11.9609C526.137 11.9609 530.004 12.875 533.449 14.7031C536.918 16.5312 539.648 19.1328 541.641 22.5078C543.633 25.8828 544.629 29.7266 544.629 34.0391ZM549.691 34.0391V59H547.16V34.0391C547.16 29.2578 546.047 24.9922 543.82 21.2422C541.594 17.4688 538.559 14.5625 534.715 12.5234C530.871 10.4609 526.582 9.42969 521.848 9.42969C517.301 9.42969 513.141 10.5195 509.367 12.6992C505.594 14.8789 502.629 17.832 500.473 21.5586C498.316 25.2617 497.238 29.3047 497.238 33.6875C497.238 36.5703 497.695 39.3125 498.609 41.9141C499.547 44.4922 500.812 46.7539 502.406 48.6992C504.023 50.6211 505.875 52.2852 507.961 53.6914C510.07 55.0977 512.332 56.1641 514.746 56.8906C517.184 57.6172 519.656 57.9805 522.164 57.9805C524.93 57.9805 527.555 57.4531 530.039 56.3984V59C527.438 59.9141 524.766 60.3711 522.023 60.3711C519.188 60.3711 516.422 59.9727 513.727 59.1758C511.055 58.3789 508.57 57.207 506.273 55.6602C504 54.0898 501.996 52.25 500.262 50.1406C498.527 48.0078 497.168 45.5234 496.184 42.6875C495.199 39.8516 494.707 36.8516 494.707 33.6875C494.707 30.0547 495.387 26.5977 496.746 23.3164C498.129 20.0117 500.004 17.1641 502.371 14.7734C504.762 12.3594 507.645 10.4492 511.02 9.04297C514.418 7.61328 518.027 6.89844 521.848 6.89844C525.738 6.89844 529.395 7.55469 532.816 8.86719C536.238 10.1797 539.191 12.0078 541.676 14.3516C544.16 16.6719 546.117 19.5312 547.547 22.9297C548.977 26.3281 549.691 30.0312 549.691 34.0391ZM592.371 25.8125L590.332 27.3594C588.293 24.8281 585.668 23.5625 582.457 23.5625C579.668 23.5625 577.277 24.5586 575.285 26.5508C573.316 28.5195 572.332 30.8984 572.332 33.6875C572.332 36.4766 573.316 38.8672 575.285 40.8594C577.277 42.8281 579.668 43.8125 582.457 43.8125C584.027 43.8125 585.492 43.4727 586.852 42.793C588.234 42.1133 589.406 41.1758 590.367 39.9805L592.336 41.6328C591.164 43.1094 589.711 44.2695 587.977 45.1133C586.242 45.9336 584.402 46.3438 582.457 46.3438C578.965 46.3438 575.977 45.1133 573.492 42.6523C571.031 40.168 569.801 37.1797 569.801 33.6875C569.801 30.1953 571.031 27.2188 573.492 24.7578C575.977 22.2734 578.965 21.0312 582.457 21.0312C584.426 21.0312 586.277 21.4648 588.012 22.332C589.746 23.1758 591.199 24.3359 592.371 25.8125ZM596.309 22.6484L594.305 24.1953C592.898 22.4141 591.152 21.0195 589.066 20.0117C587.004 19.0039 584.801 18.5 582.457 18.5C578.262 18.5 574.676 19.9883 571.699 22.9648C568.746 25.9414 567.27 29.5156 567.27 33.6875C567.27 37.8594 568.746 41.4336 571.699 44.4102C574.676 47.3867 578.262 48.875 582.457 48.875C584.801 48.875 587.016 48.3711 589.102 47.3633C591.188 46.332 592.934 44.9258 594.34 43.1445L596.273 44.7617C594.633 46.8242 592.605 48.4531 590.191 49.6484C587.777 50.8203 585.199 51.4062 582.457 51.4062C579.246 51.4062 576.281 50.6211 573.562 49.0508C570.844 47.457 568.688 45.3008 567.094 42.582C565.523 39.8633 564.738 36.8984 564.738 33.6875C564.738 30.4766 565.523 27.5117 567.094 24.793C568.688 22.0742 570.844 19.9297 573.562 18.3594C576.281 16.7656 579.246 15.9688 582.457 15.9688C585.199 15.9688 587.777 16.5664 590.191 17.7617C592.629 18.9336 594.668 20.5625 596.309 22.6484ZM600.281 19.4844L598.312 21.0664C596.414 18.6992 594.082 16.8359 591.316 15.4766C588.551 14.1172 585.598 13.4375 582.457 13.4375C579.715 13.4375 577.09 13.9766 574.582 15.0547C572.098 16.1094 569.941 17.5508 568.113 19.3789C566.309 21.1836 564.867 23.3398 563.789 25.8477C562.734 28.332 562.207 30.9453 562.207 33.6875C562.207 36.4297 562.734 39.0547 563.789 41.5625C564.867 44.0469 566.309 46.2031 568.113 48.0312C569.941 49.8359 572.098 51.2773 574.582 52.3555C577.09 53.4102 579.715 53.9375 582.457 53.9375C585.598 53.9375 588.551 53.2578 591.316 51.8984C594.082 50.5391 596.414 48.6758 598.312 46.3086L600.211 47.9609C598.078 50.6094 595.465 52.6953 592.371 54.2188C589.277 55.7188 585.973 56.4688 582.457 56.4688C579.363 56.4688 576.41 55.8711 573.598 54.6758C570.785 53.457 568.359 51.8398 566.32 49.8242C564.305 47.7852 562.688 45.3594 561.469 42.5469C560.273 39.7344 559.676 36.7812 559.676 33.6875C559.676 30.5938 560.273 27.6406 561.469 24.8281C562.688 22.0156 564.305 19.6016 566.32 17.5859C568.359 15.5469 570.785 13.9297 573.598 12.7344C576.41 11.5156 579.363 10.9062 582.457 10.9062C585.996 10.9062 589.312 11.668 592.406 13.1914C595.523 14.7148 598.148 16.8125 600.281 19.4844ZM604.219 16.3203L602.18 17.832C599.812 14.9023 596.906 12.5938 593.461 10.9062C590.039 9.21875 586.371 8.375 582.457 8.375C579.035 8.375 575.754 9.04297 572.613 10.3789C569.496 11.7148 566.801 13.5195 564.527 15.793C562.277 18.043 560.484 20.7383 559.148 23.8789C557.812 26.9961 557.145 30.2656 557.145 33.6875C557.145 37.1094 557.812 40.3906 559.148 43.5312C560.484 46.6484 562.277 49.3438 564.527 51.6172C566.801 53.8672 569.496 55.6602 572.613 56.9961C575.754 58.332 579.035 59 582.457 59C586.371 59 590.039 58.1562 593.461 56.4688C596.906 54.7812 599.812 52.4727 602.18 49.543L604.184 51.0898C601.582 54.3242 598.383 56.8789 594.586 58.7539C590.812 60.6055 586.77 61.5312 582.457 61.5312C578.684 61.5312 575.074 60.793 571.629 59.3164C568.207 57.8398 565.254 55.8594 562.77 53.375C560.285 50.8906 558.305 47.9375 556.828 44.5156C555.352 41.0703 554.613 37.4609 554.613 33.6875C554.613 29.9141 555.352 26.3164 556.828 22.8945C558.305 19.4492 560.285 16.4844 562.77 14C565.254 11.5156 568.207 9.53516 571.629 8.05859C575.074 6.58203 578.684 5.84375 582.457 5.84375C586.77 5.84375 590.824 6.78125 594.621 8.65625C598.418 10.5078 601.617 13.0625 604.219 16.3203ZM618 22.4023H620.531V59H618V22.4023ZM607.875 10.9062V8.375H645.844V10.9062H607.875ZM607.875 15.9688V13.4375H645.844V15.9688H607.875ZM607.875 21.0312V18.5H645.844V21.0312H607.875ZM633.188 22.4023H635.719V59H633.188V22.4023ZM628.125 22.4023H630.656V59H628.125V22.4023ZM623.062 22.4023H625.594V59H623.062V22.4023ZM684.656 36.5703V8.375H687.188V36.5703C687.188 39.2422 686.156 41.5391 684.094 43.4609C682.055 45.3828 679.594 46.3438 676.711 46.3438C673.828 46.3438 671.355 45.3828 669.293 43.4609C667.254 41.5391 666.234 39.2422 666.234 36.5703V8.375H668.766V36.5703C668.766 38.5625 669.539 40.2734 671.086 41.7031C672.656 43.1094 674.531 43.8125 676.711 43.8125C678.891 43.8125 680.754 43.1094 682.301 41.7031C683.871 40.2734 684.656 38.5625 684.656 36.5703ZM689.719 36.5703V8.375H692.25V36.5703C692.25 40.6719 690.727 44.1758 687.68 47.082C684.633 49.9648 680.977 51.4062 676.711 51.4062C672.445 51.4062 668.789 49.9648 665.742 47.082C662.695 44.1758 661.172 40.6719 661.172 36.5703V8.375H663.703V36.5703C663.703 39.9688 664.969 42.875 667.5 45.2891C670.055 47.6797 673.125 48.875 676.711 48.875C680.273 48.875 683.332 47.6797 685.887 45.2891C688.441 42.875 689.719 39.9688 689.719 36.5703ZM694.781 36.5703V8.375H697.312V36.5703C697.312 40.1562 696.387 43.4844 694.535 46.5547C692.684 49.6016 690.176 52.0156 687.012 53.7969C683.848 55.5781 680.414 56.4688 676.711 56.4688C673.008 56.4688 669.574 55.5781 666.41 53.7969C663.246 52.0156 660.738 49.6016 658.887 46.5547C657.035 43.4844 656.109 40.1562 656.109 36.5703V8.375H658.641V36.5703C658.641 39.6875 659.449 42.582 661.066 45.2539C662.684 47.9258 664.875 50.0469 667.641 51.6172C670.43 53.1641 673.453 53.9375 676.711 53.9375C679.969 53.9375 682.98 53.1641 685.746 51.6172C688.535 50.0469 690.738 47.9258 692.355 45.2539C693.973 42.582 694.781 39.6875 694.781 36.5703ZM699.844 36.5703V8.375H702.375V36.5703C702.375 39.9453 701.695 43.1797 700.336 46.2734C698.977 49.3438 697.148 51.9922 694.852 54.2188C692.555 56.4453 689.824 58.2148 686.66 59.5273C683.496 60.8633 680.18 61.5312 676.711 61.5312C673.242 61.5312 669.926 60.8633 666.762 59.5273C663.598 58.2148 660.867 56.4453 658.57 54.2188C656.273 51.9922 654.445 49.3438 653.086 46.2734C651.727 43.1797 651.047 39.9453 651.047 36.5703V8.375H653.578V36.5703C653.578 40.6016 654.609 44.3398 656.672 47.7852C658.758 51.2305 661.57 53.9609 665.109 55.9766C668.672 57.9922 672.539 59 676.711 59C680.883 59 684.738 57.9922 688.277 55.9766C691.84 53.9609 694.652 51.2305 696.715 47.7852C698.801 44.3398 699.844 40.6016 699.844 36.5703ZM727.863 34.8125H743.121C745.137 34.8125 746.848 34.1797 748.254 32.9141C749.66 31.6484 750.363 29.8672 750.363 27.5703C750.363 25.8828 749.625 24.3711 748.148 23.0352C746.695 21.6992 745.02 21.0312 743.121 21.0312H721.395V59H718.863V18.5H743.121C745.723 18.5 747.996 19.4141 749.941 21.2422C751.91 23.0703 752.895 25.1797 752.895 27.5703C752.895 30.5469 751.945 32.9258 750.047 34.707C748.148 36.4648 745.84 37.3438 743.121 37.3438H727.863V34.8125ZM727.863 39.875H743.121C746.496 39.875 749.391 38.7266 751.805 36.4297C754.219 34.1328 755.426 31.1797 755.426 27.5703C755.426 24.5 754.195 21.8047 751.734 19.4844C749.273 17.1406 746.402 15.9688 743.121 15.9688H716.332V59H713.801V13.4375H743.121C747.105 13.4375 750.574 14.8555 753.527 17.6914C756.48 20.5039 757.957 23.7969 757.957 27.5703C757.957 31.7891 756.492 35.3164 753.562 38.1523C750.656 40.9883 747.176 42.4062 743.121 42.4062H727.863V39.875ZM727.863 44.9375H743.121C746.238 44.9375 749.121 44.1875 751.77 42.6875C754.418 41.1875 756.527 39.1016 758.098 36.4297C759.691 33.7578 760.488 30.8047 760.488 27.5703C760.488 24.6406 759.703 21.8984 758.133 19.3438C756.562 16.7656 754.43 14.7148 751.734 13.1914C749.062 11.668 746.191 10.9062 743.121 10.9062H711.27V59H708.738V8.375H743.121C745.77 8.375 748.312 8.90234 750.75 9.95703C753.211 10.9883 755.332 12.3711 757.113 14.1055C758.895 15.8164 760.324 17.8555 761.402 20.2227C762.48 22.5898 763.02 25.0391 763.02 27.5703C763.02 31.6719 762.082 35.2578 760.207 38.3281C758.332 41.375 755.812 43.6953 752.648 45.2891L757.957 59H755.25L750.223 46.3086C749.59 46.5195 748.852 46.7305 748.008 46.9414L752.754 59H750.047L745.406 47.3633C744.68 47.4336 743.918 47.4688 743.121 47.4688L747.586 59H744.914L740.484 47.4688H738.199L742.453 59H739.781L735.492 47.4688H727.863V44.9375ZM726.457 59H723.926V23.5625H743.121C744.434 23.5625 745.547 23.9609 746.461 24.7578C747.375 25.5312 747.832 26.4688 747.832 27.5703C747.832 30.7109 746.262 32.2812 743.121 32.2812H727.863V29.75H743.121C744.574 29.75 745.301 29.0234 745.301 27.5703C745.301 27.1719 745.078 26.832 744.633 26.5508C744.211 26.2461 743.707 26.0938 743.121 26.0938H726.457V59ZM783.832 8.375H786.363V59H783.832V8.375ZM778.77 8.375H781.301V59H778.77V8.375ZM773.707 8.375H776.238V59H773.707V8.375ZM768.645 8.375H771.176V59H768.645V8.375ZM832.91 38.5742L830.379 33.9688V8.375H832.91V38.5742ZM837.973 47.3281L835.441 43.0391V8.375H837.973V47.3281ZM803.098 28.8008L805.629 33.4062V59H803.098V28.8008ZM798.035 19.6953L800.566 24.3359V59H798.035V19.6953ZM798.914 8.375H801.867L831.188 59H828.234L798.914 8.375ZM804.891 8.375H807.879L837.164 59H834.141L804.891 8.375ZM810.832 8.375H813.785L840.504 54.6055V8.375H843.035V59H840.047L810.832 8.375ZM795.504 12.7344V59H792.973V8.375H795.996L825.211 59H822.293L795.504 12.7344ZM885.258 33.3359H887.789V59C884.039 60.6875 880.16 61.5312 876.152 61.5312C872.379 61.5312 868.77 60.793 865.324 59.3164C861.902 57.8398 858.949 55.8594 856.465 53.375C853.98 50.8906 852 47.9375 850.523 44.5156C849.047 41.0703 848.309 37.4609 848.309 33.6875C848.309 29.9141 849.047 26.3164 850.523 22.8945C852 19.4492 853.98 16.4844 856.465 14C858.949 11.5156 861.902 9.53516 865.324 8.05859C868.77 6.58203 872.379 5.84375 876.152 5.84375C880.465 5.84375 884.52 6.78125 888.316 8.65625C892.113 10.5078 895.312 13.0625 897.914 16.3203L895.875 17.832C893.508 14.9023 890.602 12.5938 887.156 10.9062C883.734 9.21875 880.066 8.375 876.152 8.375C872.73 8.375 869.449 9.04297 866.309 10.3789C863.191 11.7148 860.496 13.5195 858.223 15.793C855.973 18.043 854.18 20.7383 852.844 23.8789C851.508 26.9961 850.84 30.2656 850.84 33.6875C850.84 37.1094 851.508 40.3906 852.844 43.5312C854.18 46.6484 855.973 49.3438 858.223 51.6172C860.496 53.8672 863.191 55.6602 866.309 56.9961C869.449 58.332 872.73 59 876.152 59C879.316 59 882.352 58.4375 885.258 57.3125V54.7109C882.328 55.8828 879.293 56.4688 876.152 56.4688C873.059 56.4688 870.105 55.8711 867.293 54.6758C864.48 53.457 862.055 51.8398 860.016 49.8242C858 47.7852 856.383 45.3594 855.164 42.5469C853.969 39.7344 853.371 36.7812 853.371 33.6875C853.371 30.5938 853.969 27.6406 855.164 24.8281C856.383 22.0156 858 19.6016 860.016 17.5859C862.055 15.5469 864.48 13.9297 867.293 12.7344C870.105 11.5156 873.059 10.9062 876.152 10.9062C879.691 10.9062 883.008 11.668 886.102 13.1914C889.219 14.7148 891.844 16.8125 893.977 19.4844L892.008 21.0664C890.109 18.6992 887.777 16.8359 885.012 15.4766C882.246 14.1172 879.293 13.4375 876.152 13.4375C873.41 13.4375 870.785 13.9766 868.277 15.0547C865.793 16.1094 863.637 17.5508 861.809 19.3789C860.004 21.1836 858.562 23.3398 857.484 25.8477C856.43 28.332 855.902 30.9453 855.902 33.6875C855.902 36.4297 856.43 39.0547 857.484 41.5625C858.562 44.0469 860.004 46.2031 861.809 48.0312C863.637 49.8359 865.793 51.2773 868.277 52.3555C870.785 53.4102 873.41 53.9375 876.152 53.9375C879.387 53.9375 882.422 53.2812 885.258 51.9688V49.3672C882.422 50.7266 879.387 51.4062 876.152 51.4062C872.941 51.4062 869.977 50.6211 867.258 49.0508C864.539 47.457 862.383 45.3008 860.789 42.582C859.219 39.8633 858.434 36.8984 858.434 33.6875C858.434 30.4766 859.219 27.5117 860.789 24.793C862.383 22.0742 864.539 19.9297 867.258 18.3594C869.977 16.7656 872.941 15.9688 876.152 15.9688C878.895 15.9688 881.473 16.5664 883.887 17.7617C886.324 18.9336 888.363 20.5625 890.004 22.6484L888 24.1953C886.594 22.4141 884.848 21.0195 882.762 20.0117C880.699 19.0039 878.496 18.5 876.152 18.5C871.957 18.5 868.371 19.9883 865.395 22.9648C862.441 25.9414 860.965 29.5156 860.965 33.6875C860.965 37.8594 862.441 41.4336 865.395 44.4102C868.371 47.3867 871.957 48.875 876.152 48.875C879.434 48.875 882.469 48.0781 885.258 46.4844V43.918C882.516 45.5352 879.48 46.3438 876.152 46.3438C872.66 46.3438 869.672 45.1133 867.188 42.6523C864.727 40.168 863.496 37.1797 863.496 33.6875C863.496 30.1953 864.727 27.2188 867.188 24.7578C869.672 22.2734 872.66 21.0312 876.152 21.0312C878.121 21.0312 879.973 21.4648 881.707 22.332C883.441 23.1758 884.895 24.3359 886.066 25.8125L884.027 27.3594C881.988 24.8281 879.363 23.5625 876.152 23.5625C873.363 23.5625 870.973 24.5586 868.98 26.5508C867.012 28.5195 866.027 30.8984 866.027 33.6875C866.027 36.4766 867.012 38.8672 868.98 40.8594C870.973 42.8281 873.363 43.8125 876.152 43.8125C879.738 43.8125 882.773 42.8164 885.258 40.8242V33.3359ZM900.445 33.3359H902.977V59H900.445V33.3359ZM895.383 33.3359H897.914V59H895.383V33.3359ZM890.32 33.3359H892.852V59H890.32V33.3359Z" fill="black"/>
</svg>
